<?xml version="1.0" encoding="utf-8"?>
<!-- Generator: Adobe Illustrator 21.1.0, SVG Export Plug-In . SVG Version: 6.00 Build 0)  -->
<svg version="1.1" id="Layer_1" xmlns="http://www.w3.org/2000/svg" xmlns:xlink="http://www.w3.org/1999/xlink" x="0px" y="0px"
	 viewBox="0 0 29.3 79.7" style="enable-background:new 0 0 29.3 79.7;" xml:space="preserve">
<style type="text/css">
	.st0{fill:#DCCCAA;}
</style>
<path class="st0" d="M15.7,46c-0.7,0-1.3,0-2.1,0c-0.1,0.7-0.1,1.5-0.2,2.2c-0.3,9-0.7,18.1-1,27.1c-0.1,1.5-0.2,2.9-1.6,3.8
	c-1.3,0.8-2.6,0.8-3.8,0c-1.2-0.8-1.5-2.1-1.4-3.5c0.2-4.2,0.5-8.5,0.7-12.7c0.2-5.1,0.4-10.1,0.5-15.2C6.9,40.1,6.9,32.5,7,24.9
	c0-0.2,0-0.5,0-0.7c-0.1,0-0.2-0.1-0.4-0.1c-0.5,1.7-1.2,3.4-1.5,5.1c-1.1,5.6-1.3,11.3-1,17c0,0.6,0,1.1,0,1.7c0,1.3-0.8,2.1-2,2.1
	c-1.1,0-2.1-0.8-2.1-2c0-4.1-0.2-8.2,0.1-12.2c0.3-3.5,1.1-7,1.8-10.5c0.6-2.5,1.8-4.8,4-6.3c0.8-0.5,1.9-1,2.9-1
	c3.8-0.1,7.7-0.1,11.5,0c2.6,0,4.2,1.6,5.4,3.6c1.8,3.1,2.8,6.5,3,10c0.3,5.3,0.4,10.6,0.5,15.9c0,1-0.1,2-1.2,2.4
	c-1.5,0.6-2.8-0.5-2.8-2.2c0-3.7,0.1-7.3,0-11c-0.1-3.8-0.6-7.6-1.9-11.2c-0.2-0.4-0.4-0.8-0.6-1.3c-0.1,0.2-0.2,0.2-0.2,0.3
	c0.1,8.2,0,16.3,0.3,24.5c0.2,9,0.7,18,1.1,27c0.2,3.5-2.9,4.4-4.8,3.5c-1.2-0.6-1.8-1.5-1.9-2.8c-0.2-5.8-0.5-11.7-0.7-17.5
	c-0.2-4.1-0.4-8.1-0.5-12.2C15.8,46.5,15.8,46.3,15.7,46z"/>
<path class="st0" d="M7.2,7.6c0-4.2,3.3-7.6,7.5-7.6c4.1,0,7.5,3.4,7.6,7.5c0,4.2-3.5,7.7-7.6,7.6C10.5,15.1,7.2,11.8,7.2,7.6z"/>
</svg>
