<?xml version="1.0" encoding="utf-8"?>
<!-- Generator: Adobe Illustrator 21.1.0, SVG Export Plug-In . SVG Version: 6.00 Build 0)  -->
<svg version="1.1" id="Layer_1" xmlns="http://www.w3.org/2000/svg" xmlns:xlink="http://www.w3.org/1999/xlink" x="0px" y="0px"
	 viewBox="0 0 45.8 79.9" style="enable-background:new 0 0 45.8 79.9;" xml:space="preserve">
<style type="text/css">
	.st0{fill:#DCCCAA;}
</style>
<path class="st0" d="M26.5,55.3c-2.4,0-4.7,0-7.3,0c-0.4,2.1-0.9,4.4-1.2,6.6c-0.8,4.9-1.6,9.8-2.4,14.6c-0.4,2.3-2.7,3.7-5.1,3.3
	c-2.4-0.4-4-2.6-3.6-5.1c0.8-5.2,1.7-10.3,2.6-15.5c0.5-2.6,1.1-5.1,1.6-7.6c0.1-0.3,0-0.6-0.2-0.8C7.5,47,7.2,42.5,8.4,37.9
	c0.7-2.6,2-4.9,2.9-7.4c0.1-0.3,0.1-0.7,0.1-1c-0.1-1.7-0.2-3.5-0.3-5.4c-0.6,1.1-1.3,2.1-1.9,3.3c-2,4.4-2.9,9.1-3.2,13.9
	c0,0.8-0.2,1.8-0.6,2.5C4.8,45.1,3.4,45.5,2,45c-1.2-0.4-2.1-1.6-2-3C0.4,35,1.6,28,5.4,21.9c2.5-4,5.9-6.9,10.4-8.3
	c0.8-0.2,1.4-0.2,2,0.4c3,2.5,7.1,2.4,10.2,0c0.4-0.3,1.3-0.5,1.8-0.4c4.1,1.2,7.2,3.6,9.7,7c3.1,4.3,4.7,9.2,5.5,14.4
	c0.3,2.3,0.6,4.6,0.8,6.9c0.1,1.9-1,3.2-2.8,3.3c-1.7,0.1-3.1-1.1-3.2-3c-0.2-4.1-0.8-8.2-2.1-12.1c-0.7-2.1-1.7-4.2-3-5.8
	c-0.1,1.8-0.3,3.6-0.4,5.5c0,0.3,0.1,0.7,0.3,1c2.2,4.1,3.7,8.3,3.4,13c-0.2,2.7-1.2,4.9-2.9,6.9c-0.2,0.2-0.4,0.6-0.3,0.9
	c1.3,7.3,2.6,14.5,3.9,21.8c0.3,1.4,0.6,2.7-0.1,4.1c-1,1.9-2.6,2.7-4.7,2.4c-1.8-0.3-3.2-1.8-3.5-3.6c-1-5.9-1.9-11.7-2.9-17.6
	C27.1,57.5,26.7,56.4,26.5,55.3z"/>
<path class="st0" d="M30.4,7.6c0,4.2-3.4,7.5-7.6,7.5c-4.2,0-7.5-3.4-7.5-7.6c0-4.2,3.4-7.5,7.5-7.5C27.1,0,30.5,3.4,30.4,7.6z"/>
</svg>
