<?xml version="1.0" encoding="utf-8"?>
<!-- Generator: Adobe Illustrator 21.1.0, SVG Export Plug-In . SVG Version: 6.00 Build 0)  -->
<svg version="1.1" id="Layer_1" xmlns="http://www.w3.org/2000/svg" xmlns:xlink="http://www.w3.org/1999/xlink" x="0px" y="0px"
	 viewBox="0 0 48.9 80" style="enable-background:new 0 0 48.9 80;" xml:space="preserve">
<style type="text/css">
	.st0{fill:#DCCCAA;}
</style>
<path class="st0" d="M11.4,25.4c-1.8,2.7-2.9,5.4-3.5,8.3c-0.5,2.9-0.9,5.8-1.2,8.6c-0.2,1.8-1.6,3.2-3.4,3.2c-2,0-3.5-1.4-3.3-3.5
	c0.4-3.6,0.8-7.2,1.6-10.8c1.1-5.2,3.5-9.7,7.4-13.4c2.4-2.3,5.2-3.9,8.4-4.7c0.5-0.1,1.2,0.1,1.6,0.4c3.3,2.7,7.4,2.9,10.9,0.1
	c0.4-0.3,1.2-0.6,1.7-0.4c3.9,1,7,3.1,9.7,6.1c3.9,4.5,5.9,9.8,6.9,15.5c0.4,2.4,0.6,4.7,0.8,7.1c0.1,2.1-1.3,3.5-3.2,3.6
	c-1.9,0.1-3.2-1.3-3.5-3.3c-0.4-3.2-0.8-6.5-1.5-9.7c-0.5-2.5-1.6-4.8-3.2-6.9c0.2,1.7-0.6,3.3,0.4,5.1c2,3.7,3.3,7.6,3.3,11.9
	c0.1,3.8-1,7.1-3.7,9.8c-0.6,0.6-0.5,1.1-0.3,1.8c2.2,6.5,3.5,13.2,4.5,19.9c0.3,2-0.4,3.8-2,4.9c-1.7,1.1-3.6,1.2-5.4,0.2
	c-1.4-0.7-2.2-1.9-2.5-3.5c-0.9-4.7-1.9-9.5-2.9-14.2c-0.3-1.4-0.8-2.7-1.2-4c-0.1-0.3-0.5-0.5-0.8-0.6c-1.6-0.1-3.3-0.1-4.9,0
	c-0.3,0-0.8,0.4-0.9,0.7c-0.9,3.5-1.9,6.9-2.7,10.4c-0.6,2.5-0.9,5-1.3,7.5c-0.4,2.1-2,3.8-4,4.1c-2.3,0.4-4-0.5-5.3-2.5
	c-1.1-1.6-0.7-3.3-0.4-5c0.7-4,1.5-8,2.4-12c0.5-2.2,1.3-4.4,1.9-6.5c0.1-0.4,0.1-1-0.2-1.2C8,49.1,7.3,44.7,8,39.9
	c0.5-3.5,1.7-6.8,3.5-9.9c0.2-0.3,0.3-0.8,0.3-1.1C11.7,27.8,11.5,26.8,11.4,25.4z"/>
<path class="st0" d="M17,7.5C17,3.3,20.3,0,24.5,0C28.7,0,32,3.4,32,7.5c0,4.2-3.4,7.5-7.6,7.5C20.2,15.1,17,11.8,17,7.5z"/>
</svg>
