<?xml version="1.0" encoding="utf-8"?>
<!-- Generator: Adobe Illustrator 21.1.0, SVG Export Plug-In . SVG Version: 6.00 Build 0)  -->
<svg version="1.1" id="Layer_1" xmlns="http://www.w3.org/2000/svg" xmlns:xlink="http://www.w3.org/1999/xlink" x="0px" y="0px"
	 viewBox="0 0 228.5 86" style="enable-background:new 0 0 228.5 86;" xml:space="preserve">
<style type="text/css">
	.st0{fill:#DCCCAA;}
</style>
<path class="st0" d="M33.8,66.4c0.3-5.1-0.9-10.6-0.7-16c0.8-16.8,1.6-33.1,0.7-45.9c-2.6-1.3-4.8,0.8-8,0.7c-7.3-0.3-16.1-4.3-24-2
	c-0.1,26-3.7,55.2-0.7,79.8c4.3,1.1,9.2-0.4,14.6-0.7c6.2-0.3,12.9,2.3,18,0c0.9-3.1-1.2-4-1.3-8C32.4,71.6,33.7,69.4,33.8,66.4z
	 M25.8,10.6c1.8-0.2-2.3,4.1-2.7,6C21.7,14.8,25.6,12.8,25.8,10.6z M21.2,18.5c1.3,1.1-1,4.3-2.7,4.7C18.8,21,20.5,20.3,21.2,18.5z
	 M14.5,8.6c-0.2,0.9-1.2,1-1.3,2C11.5,10.3,13.2,8,14.5,8.6z M16.5,9.9c-0.4,5.8-7,11.2-10,16.6C7.6,21.4,13.9,15.7,16.5,9.9z
	 M17.2,16.5c-0.6,6.5-8.3,11.6-11.3,18C6.2,27.7,13.2,21.9,17.2,16.5z M5.9,18.5c2.9-0.1-0.1,1.6,0.7,3.3C5.1,22,6.2,19.5,5.9,18.5z
	 M17.2,25.2c2.4,0.5-0.8,2.5-1.3,3.3C12.8,32.9,8.5,39,5.2,43.2C4.4,35,12.8,30.4,17.2,25.2z M4.5,47.1c9.6-9.8,16-20.2,23.3-31.3
	c-5.2,12.5-13.4,27.9-24,37.3C4.4,51.5,4.7,49.6,4.5,47.1z M3.9,62.4c0-2,0-4,0-6c6.8-4,10.8-14,16.6-20c0-0.6,0.8-0.5,1.3-0.7
	c-4.6,7.5-8.8,14.9-14,22C6.7,59.4,5.5,61.1,3.9,62.4z M28.5,79.1c-2.6,0.4-3.2-1.2-6-0.7c0-3.9,3.4-4.6,4.7-7.3
	c1.7,1.3-1.7,3.1-2,4.7C25.2,77.9,29.1,76.2,28.5,79.1z M27.8,66.4c1.2,0.5,0.1,1.2,0,2C26.6,67.9,27.7,67.2,27.8,66.4z M17.8,60.4
	c-1.4,2.2-2.5,4.8-4,6.7c-2,2.5-6.4,3.8-6,8c1.2,1.8,3.5-1.5,2.7,2.7c10-3.4,10.2-16.5,18.6-21.3c-0.4,2.4-2.5,3.3-4,4.7
	c0.2,6.3-5.9,11.7-8.6,17.3c-3.8,0-7.5,0-11.3,0c-1-8.4,4.3-12.5,8.6-18.6c2.1-2.9,4.1-6.3,6.7-9.3c2.7-3.2,6.5-7.7,8.6-12.6
	c0.6,0,0.5,0.8,0.7,1.3C26.6,46.8,22.3,53.6,17.8,60.4z M22.5,58.5c-2.5,3.2,0.2-0.2,2-3.3C25.6,56.8,22.8,58.1,22.5,58.5z
	 M16.5,68.4c-1.5-1.3,1.7-3.6,2.7-4.7C20.3,62.5,17.3,67.3,16.5,68.4z M7.2,65.1c1.4-7,8.7-13.9,13.3-20c-0.5-0.6-0.7-1.5-0.7-2.7
	c4.1-3.9,6.4-9.5,10-14c0.8,0.1,0.6,1.2,0.7,2C22.9,42.3,16.1,54.7,7.2,65.1z"/>
<g>
	<path class="st0" d="M143.9,21.3c-0.1-5.3,1.6-12-2-16.6c-4,0.8-9,1.5-12.6-2c-3.1,2-7.9,0.1-13.3,0.7c-0.7,5.2-3.3,8.7-6,12
		c-1.4,6.4-4,11.6-8,15.3C96.2,21.1,94.8,7.2,86.7,0c-9.5,1.1-20.9-1.5-27.9,1.3c-1.1,2.2,0.4,2.3,0.7,4.7c-6.4,18-7,46.5-11.3,65.2
		c-1.2,5.1-2.1,8.4-2,12c6.9,3.5,18.8-0.4,27.3,1.3c1.9-1.6,3.7-3.4,6-4.7c0.6-8.7,3.2-15.5,4.7-23.3c3.2,9,7.6,17.6,7.3,25.3
		c5-0.1,11.7,0.8,18,1.3c2.2-9,5.8-14.4,7.3-21.3c0.2,8.5,0.9,16.4,2.7,23.3c6.6,0.1,14.9-0.3,22,0c3.2,0.1,6.5,2.2,8.6-0.7
		C145.7,64.8,144.3,42.9,143.9,21.3z M141.2,57.2c-0.7,0-1.3,0-2,0c0.2-0.9,1.2-1,1.3-2C141.3,55.3,141.1,56.4,141.2,57.2z
		 M121.9,51.2c-2.5-1.2,1-3.6,1.3-4c4.3-5.8,11.6-13.7,16.6-16.6C134,37.6,127,43.5,121.9,51.2z M121.3,57.9
		c0.4-1.5,2.2-1.8,2.7-3.3C124.9,54.9,122.7,57.7,121.3,57.9z M126.6,38.6c-0.8-3.2,3.5-4.9,5.3-7.3c2.5-3.2,3.8-7.1,6.7-9.3
		c0.6,0.5,1,1.2,1.3,2C135.9,29.3,130.1,32.8,126.6,38.6z M132.6,9.3c3-0.5,4,0.9,6.7,0.7c0,1.1,0,2.2,0,3.3c-2.5,0.5-2-2-4-2
		c-3.3,0.7-3.2,4.8-6.7,5.3C126.9,13.6,131.9,12.2,132.6,9.3z M120.6,8c-0.4,2.5-2.3,3.4-3.3,5.3C116.8,12.6,118.2,8.1,120.6,8z
		 M107.9,30.6c0.6-0.5,1.5-0.7,2.7-0.7c5.8-7.3,11.6-14.6,17.3-22c1.2,1.3-1.1,3.3-2,4.7c-4.6,7.3-12.3,14.7-18,22
		c4.7,3.6,7.5-5.6,12-6.7c-2.6,3.6-6.6,5.8-8.6,10c-2.5-3.5-6.4,0.5-8,2C102.9,40.1,108.3,34.9,107.9,30.6z M120.6,27.3
		c-0.2-3.5,4.3-8.1,6.7-11.3C130,19.7,122.5,23.9,120.6,27.3z M88.7,50.6c-0.5-5.8,7-9.4,10.6-13.3C97.3,43.3,91.3,45.2,88.7,50.6z
		 M94,50.6c-1.4-1,2.2-2.7,2.7-4C98.1,47.6,94.2,49,94,50.6z M92.6,22.6c-1,0.8-3,0.6-2.7,2.7c-2.2-1.6,2.4-2,1.3-4.7
		c-8-2-7.2,10.5-14.6,11.3c4.6-5.4,8.7-11.3,14.6-15.3C91.4,19,92.4,20.5,92.6,22.6z M73.4,54.6c-0.9,1-1.8,1.6-2.7,2.7
		c-2.8,3.6-7.1,8.9-10.6,10.6c4.4-10,12.5-16.3,19.3-23.9c0.7,3.9-3.1,5.1-6,8.6C73,53,73.7,54.2,73.4,54.6z M89.3,12.7
		c0.6,1.8-1.4,0.8-2,1.3c-3.8,3.4-5.6,9.2-10.6,11.3c1.9-2,4-4.8,6-7.3C84.5,15.7,86,11.4,89.3,12.7z M85.3,7.3
		C83.8,10.7,78.8,19,74.7,20C75.2,15.4,82.6,11.9,85.3,7.3z M82,5.3c-1.5,2.9-3.7,4.1-5.3,6c-1.4,1.7-2,4.7-5.3,5.3
		C74.8,12,76.5,8.6,82,5.3z M73.4,24c-0.2,1.4-1.8,1.3-2,2.7C70.2,26.5,71.7,23.5,73.4,24z M75.3,4.7c-1,4.3-7.2,9.2-10,14
		C66.3,14.3,72.3,9.1,75.3,4.7z M60.1,33.9c-0.2,1.4-1.8,1.3-2,2.7C56.3,35.8,58,33.1,60.1,33.9z M69.4,27.3c1.5,0.5-1.3,2.2-2,2.7
		c0.1,1.1-0.3,2.5,0.7,2.7c-4,3.8-6.3,9.3-12,11.3C62.1,40,64,31.9,69.4,27.3z M68,36.6c2.5,2.9-2.8,5.2-5.3,8
		c-2.7,3-4.1,6.8-7.3,9.3C55.5,46.6,64.5,42.6,68,36.6z M72.7,37.9c0.8-0.1,1.2,0.1,1.3,0.7c1.7,0.4-1.9,4.4-3.3,6
		c-4.5,5.4-11,12.9-16.6,17.3C58.3,51.9,67,46.4,72.7,37.9z M50.7,79.2c0.2-1.2,1.1-1.5,2.7-1.3C53.2,79,52.3,79.4,50.7,79.2z
		 M52.7,71.9c2.2-8,11.3-14.8,16.6-22C66.2,57,56.9,63.6,52.7,71.9z M57.4,77.2c0.1-3.4,4.6-5.6,7.3-8.6c2-2.2,3.3-5,5.3-6.7
		C69.4,64.7,62.6,74.4,57.4,77.2z M73.4,71.9c-0.9-1.6,3-4.1,4-6C79,65.9,75.8,71.7,73.4,71.9z M65.4,75.9c1.6-5.5,9-14.5,13.3-17.3
		C75.5,65.5,69.2,69.5,65.4,75.9z M75.3,56.6c-1.3-1.5,3.2-2.9,4-4.7C81,53.8,75.9,54.6,75.3,56.6z M78.7,37.3
		C81.9,33.6,85,29.8,88,26C88.1,27,82.4,35.2,78.7,37.3z M83.3,41.3c-0.1-5.9,6.9-10.4,10-15.3c0.8,0.3,1.4,0.9,1.3,2
		C90.9,32.4,86.3,36,83.3,41.3z M96,31.3c0.8,0.3,1.4,0.9,1.3,2c-3.9,4.1-7.1,8.9-12,12C85.9,40.3,92.9,36.1,96,31.3z M88.7,53.9
		C92.5,54.8,86.2,57,88.7,53.9L88.7,53.9z M90,59.2c1.9-0.5,5.2-2.4,5.3-6.7c4.7-4,8.7-8.6,13.3-12.6c0.7,0.2,0.5,1.3,1.3,1.3
		c-4.9,8.4-14.1,12.5-17.3,22.6C91.5,62.5,90.2,61.4,90,59.2z M98.6,77.8c1.3-3.6,5.3-4.4,7.3-7.3c-1.7-0.1-2.8,0.3-3.3,1.3
		c0.3-2.8,5.6-6.4,8-9.3C111.3,69.7,104.2,74.8,98.6,77.8z M114.6,56.6c-8.3,3.6-12.8,11.2-18.6,17.3c-3.1-1.9,3.3-3.7,3.3-6.7
		c5.5-4.2,9.7-9.8,15.3-14C116.6,53.8,114.2,55.4,114.6,56.6z M111.3,51.9c-5.1,3.1-8.1,9.5-13.3,12c4.8-6.7,11.8-11.3,17.3-17.3
		c1.2-0.6,2.2,2,2.7,0C118,49.6,114.4,50,111.3,51.9z M116.6,44.6c-4-1.4-7,3.5-9.3,6c-0.3-3,4.4-6.6,8.6-7.3c0.9-1.8,4.9-3.9,3.3-6
		c5.9-6,9.9-13.9,17.2-18.5c0-0.1,0.1-0.1,0.1-0.2c0.1,0,0.2,0,0.3-0.1c0.3-0.2,0.7-0.4,1.1-0.6c0,0.5-0.6,0.5-1.1,0.6
		c-0.1,0.1-0.3,0.1-0.4,0.2C130.4,28,122.8,35.6,116.6,44.6z M121.3,68.5c-0.8-3.5-0.6-5.6,0-8c1.1,0,2.2,0,3.3,0
		c-0.6,1.6-2.7,1.8-2,4.7c0.1,0.8,2,0.9,2,0C125.9,66.1,123.3,68.7,121.3,68.5z M123.9,80.5c-2.6,1.1-0.2-2.9-2-2.7
		c0.6-1,2.1-1,3.3-1.3C124.7,77.7,123.4,78.2,123.9,80.5z M126.6,50.6c3.8-5.7,8.8-10.2,13.3-15.3c2.1,3.8-2.6,6.6-4.7,8.6
		c-2.5,2.4-5.1,4.7-7.3,6.7C127,50.7,126.7,53.3,126.6,50.6z M127.2,56.6c4.7-3.7,8.2-8.7,12.6-12.6c-0.1,2.1-3.2,4.6-5.3,6.7
		c-2.2,2.2-4.6,4.2-6.7,6C128,58.2,127.1,57.7,127.2,56.6z M135.9,53.2c1.2-1.2,3.3-2.7,4.7-2.7c0.9,1.7-1.8,2-2.7,2.7
		c-3.5,2.7-7,7.3-10.6,10C130.2,60.6,132.9,56.1,135.9,53.2z M140.5,59.9c0.6,0.5,1,1.2,1.3,2c-3.4,3.2-7.5,7.9-11.3,8.6
		C131.4,67.1,137.3,63.1,140.5,59.9z M136.6,81.2c-1.8,0.1-1.3-1.1-2.7,0c-0.8-0.4,1.7-3.1,4-2.7C137.5,79.5,136.9,80.2,136.6,81.2z
		 M137.9,71.2c-1.2-1.3,2.9-2.8,3.3-4.7c1.5,0.1,1.4,1.7,1.3,3.3C140.8,68.2,138.9,70.1,137.9,71.2z M141.2,80.5
		c0.3-1,1-1.7,1.3-2.7c2.1,0.9,0.3,1.4,1.3,3.3C142.7,81.3,142.5,80.4,141.2,80.5z"/>
</g>
<g>
	<path class="st0" d="M224.2,56.8c-7.7,0.3-21.3,2-26.1-3.5c-5.8-6.6,1.3-21.4,11.3-23.5c4.9-1,7,1.4,12-0.7
		c2.1,0.5,2.2,2.9,5.6,2.1c1.6-6.6-0.8-14.7,0.7-24.9c-13.1-8.5-35.4-4.7-46.5,1.4c-9,4.9-18.6,16.4-21.1,26.2
		c-1.9,7.4-1.2,15.3-0.7,18.6c1.2,7.7,3.5,12.7,7.7,17.9c4.5,5.5,16.1,10.6,23.2,12.4c11.8,3,25,0.3,38,0
		C228.6,74.7,226.8,63.3,224.2,56.8z M216.9,23.7c-1-1.7,3.2-4.2,4.2-6.2C222.9,17.5,219.5,23.5,216.9,23.7z M221,15.6
		c-0.1,0.1-0.3,0.2-0.4,0.2c0-0.1,0.1-0.1,0.1-0.2C220.8,15.6,220.9,15.6,221,15.6c0.4-0.2,0.7-0.4,1.1-0.6
		C222.1,15.5,221.5,15.5,221,15.6z M214.9,8.4c3.1-0.5,4.2,0.9,7,0.7c0,1.2,0,2.3,0,3.5c-2.7,0.6-2.2-2-4.2-2.1
		c-3.5,0.7-3.4,5-7,5.5C208.9,12.9,214.2,11.4,214.9,8.4z M209.7,16.1c2.9,3.8-5.1,8.2-7,11.7C202.4,24.2,207.2,19.4,209.7,16.1z
		 M203.5,6.6c-0.4,2.6-2.5,3.6-3.5,5.5C199.5,11.4,201,6.7,203.5,6.6z M198.4,24.2c2.1-2.3,3.5-5.2,5.6-6.9c-0.7,3-7.9,13-13.4,15.9
		C190.7,29.7,195.5,27.4,198.4,24.2z M167.4,50c-0.5-6,7.4-9.8,11.3-13.8C176.6,42.4,170.2,44.4,167.4,50z M170,52.2
		C174.1,53.2,167.5,55.5,170,52.2L170,52.2z M175.7,48.8c-1.5-1.1,2.3-2.8,2.8-4.1C180,45.7,175.9,47.1,175.7,48.8z M186,38.8
		c0.9,0.3,1.4,0.9,1.4,2.1c-4.1,4.3-7.5,9.2-12.7,12.4C175.4,48.2,182.8,43.8,186,38.8z M180.8,33.1c0.2-0.9,1.2-1.1,1.4-2.1
		c0.8,0.1,0.6,1.3,0.7,2.1C182.2,33.1,181.5,33.1,180.8,33.1z M193.4,42.4c0.1,1.1-6,9.6-9.9,11.7C186.9,50.3,190.2,46.4,193.4,42.4
		z M196.1,10.8c-1.6,3-3.9,4.3-5.6,6.2c-1.5,1.8-2.1,4.9-5.6,5.5C188.4,17.8,190.2,14.2,196.1,10.8z M183.4,14
		c0.8-0.1,1.3,0.2,1.4,0.7c1.8,0.4-2.1,4.5-3.5,6.2c-4.8,5.6-11.6,13.4-17.6,18C168.1,28.5,177.3,22.8,183.4,14z M167.2,59.2
		c-1.3-1.6,3.4-3.1,4.2-4.8C173.2,56.3,167.8,57.2,167.2,59.2z M172.3,69.7c-3.3-1.8,3.5-3.6,3.5-6.4c5.9-4.1,10.3-9.5,16.2-13.5
		c2.1,0.5-0.4,2.1,0,3.2C183.2,56.5,178.5,63.8,172.3,69.7z M178.3,71.5c5-3.8,8.7-9,13.4-13.1c-0.1,2.2-3.4,4.8-5.6,6.9
		c-2.4,2.3-4.9,4.4-7,6.2C179.1,73.2,178.1,72.7,178.3,71.5z M199.4,56.8c-3.4,7.2-10,11.3-14.1,18C187,69,194.8,59.6,199.4,56.8z
		 M189.1,78.7c1.3-3.7,5.6-4.6,7.7-7.6c-1.7-0.1-2.9,0.4-3.5,1.4c0.3-2.9,5.9-6.6,8.4-9.7C202.6,70.2,195,75.5,189.1,78.7z
		 M199.3,79.1c0.5-1.6,2.3-1.8,2.8-3.5C203.2,76,200.8,78.9,199.3,79.1z M204.5,67.4c-0.9-3.6-0.6-5.8,0-8.3c1.2,0,2.3,0,3.5,0
		c-0.7,1.7-2.8,1.8-2.1,4.8c0.2,0.9,2.1,0.9,2.1,0C209.4,64.9,206.6,67.6,204.5,67.4z M207.3,79.9c-2.8,1.1-0.2-3-2.1-2.8
		c0.6-1,2.3-1,3.5-1.4C208.1,76.9,206.8,77.5,207.3,79.9z M220.9,61.4c0.7,0.5,1.1,1.3,1.4,2.1c-3.6,3.3-8,8.2-12,9
		C211.1,68.9,217.4,64.7,220.9,61.4z M213.3,78.9c-1.9,0.1-1.4-1.2-2.8,0c-0.9-0.5,1.8-3.2,4.2-2.8
		C214.3,77.2,213.6,77.9,213.3,78.9z M217,74.9c-1.3-1.3,3.1-2.9,3.5-4.8c1.5,0.1,1.5,1.7,1.4,3.5C220.1,71.9,218.1,73.8,217,74.9z
		 M220.3,78.3c0.4-1,1-1.7,1.4-2.8c2.2,0.9,0.4,1.4,1.4,3.5C221.9,79.1,221.7,78.1,220.3,78.3z"/>
</g>
</svg>
