<?xml version="1.0" encoding="utf-8"?>
<!-- Generator: Adobe Illustrator 21.1.0, SVG Export Plug-In . SVG Version: 6.00 Build 0)  -->
<svg version="1.1" id="Layer_1" xmlns="http://www.w3.org/2000/svg" xmlns:xlink="http://www.w3.org/1999/xlink" x="0px" y="0px"
	 viewBox="0 0 48.3 82.6" style="enable-background:new 0 0 48.3 82.6;" xml:space="preserve">
<style type="text/css">
	.st0{fill:#DCCCAA;}
</style>
<path class="st0" d="M24,48.5c-0.4,1.9-0.8,3.9-1.1,5.8c-1.3,7.8-2.7,15.7-4,23.5c-0.3,2-0.9,3.6-2.9,4.4c-1.8,0.7-3.3,0.3-4.7-0.8
	c-1.2-1.1-1.8-2.5-1.5-4.2c0.8-4.7,1.6-9.4,2.4-14c1.2-7,2.5-14.1,3.6-21.1c0.1-0.9-0.1-1.8-0.3-2.7c-1.1-4.6-2.2-9.2-3.3-13.7
	c-0.1-0.4-0.5-0.9-0.9-1c-5.4-2-9.3-5.5-10.7-11.2c-1-3.9-0.7-7.8,0.6-11.6c0.5-1.4,2-2.1,3.4-1.8c1.5,0.4,2.5,1.8,2.3,3.3
	C6.7,5,6.3,6.5,6.2,8c-0.2,2.4,0.1,4.8,1.6,6.9c2,2.6,4.6,4.3,8,4.3c5.4,0.1,10.9,0,16.3,0c5.7,0,10.5-4.6,10.1-10.7
	C42.1,7,41.8,5.5,41.5,4c-0.3-1.7,0.2-2.9,1.7-3.7c1.2-0.6,2.5-0.3,3.6,0.8c0.3,0.3,0.5,0.8,0.6,1.3c0.8,3.6,1.3,7.2,0.4,10.9
	c-1.2,4.6-3.9,7.9-8,10c-0.8,0.4-1.6,0.8-2.4,1.1c-0.9,0.2-1.3,0.7-1.5,1.6c-1.1,4.8-2.2,9.6-3.3,14.5c-0.1,0.7-0.1,1.4,0,2.1
	c1.1,6.5,2.2,13.1,3.3,19.6c0.8,4.8,1.6,9.5,2.5,14.3c0.5,2.8-0.3,4.6-2.3,5.6c-2.9,1.4-5.9-0.1-6.5-3.4c-0.8-4.2-1.4-8.4-2.1-12.6
	c-0.9-5.6-1.9-11.2-2.9-16.8c0-0.3-0.2-0.5-0.3-0.8C24.2,48.5,24.1,48.5,24,48.5z"/>
<path class="st0" d="M24,17.8c-4.2-0.1-7.4-3.5-7.4-7.7c0.1-4.1,3.6-7.6,7.6-7.5c4.1,0.1,7.5,3.7,7.5,7.8
	C31.6,14.5,28.1,17.9,24,17.8z"/>
</svg>
