<?xml version="1.0" encoding="utf-8"?>
<!-- Generator: Adobe Illustrator 21.1.0, SVG Export Plug-In . SVG Version: 6.00 Build 0)  -->
<svg version="1.1" id="Layer_1" xmlns="http://www.w3.org/2000/svg" xmlns:xlink="http://www.w3.org/1999/xlink" x="0px" y="0px"
	 viewBox="0 0 38.7 80" style="enable-background:new 0 0 38.7 80;" xml:space="preserve">
<style type="text/css">
	.st0{fill:#DCCCAA;}
</style>
<path class="st0" d="M20.1,50.7c-0.6,0-1,0-1.5,0c-0.2,2.6-0.4,5.1-0.6,7.7c-0.4,5.9-0.7,11.8-1.2,17.7c-0.2,2.7-2.1,4.1-4.8,3.9
	c-2.3-0.1-4-2-3.9-4.5C8.5,70,8.9,64.6,9.3,59.2c0.2-3.8,0.4-7.5,0.6-11.3c0-0.4-0.2-0.9-0.4-1.3c-2.1-2.7-2.6-5.7-1.9-8.9
	c0.5-2,1.3-3.8,1.9-5.8c0.1-0.3,0.2-0.5,0.2-0.8c0-2.4,0-4.9,0-7.3c-0.4,0.8-1,1.6-1.3,2.5c-1.9,4.6-2.6,9.5-2.9,14.5
	c-0.1,1.5-0.1,3-0.2,4.6C5.3,47,4.2,48,2.6,48C1,48,0,47,0,45.3c0.1-7,0.6-13.9,3.2-20.5c1.3-3.3,3.1-6.4,6.5-8
	c1.1-0.5,2.4-0.8,3.7-0.9c4-0.1,8-0.1,12,0c3.6,0,6.1,2,8,4.9c2.7,4.1,3.9,8.7,4.5,13.5c0.4,3.5,0.6,7.1,0.9,10.6
	c0.1,1.9-0.9,3.1-2.5,3.1c-1.7,0.1-2.8-1-2.8-3c0-5.1-0.5-10.1-1.8-15c-0.5-2.1-1.6-4-2.5-6.1c-0.1-0.2-0.2-0.3-0.5-0.5
	c0.1,2.6,0.2,5.1,0.4,7.5c0.1,1,0.7,1.9,1,2.8c1.2,3.4,2.1,6.8,0.6,10.4c-0.3,0.7-0.7,1.5-1.2,2c-0.6,0.7-0.7,1.4-0.6,2.3
	c0.4,6.4,0.8,12.8,1.2,19.2c0.2,2.5,0.3,4.9,0.5,7.4c0.2,2.5-1.7,4.7-4.1,4.8c-2.6,0.1-4.5-1.6-4.6-4.4c-0.5-7.9-1-15.9-1.6-23.8
	C20.2,51.4,20.2,51.1,20.1,50.7z"/>
<path class="st0" d="M19.4,0c4.3,0,7.5,3.3,7.4,7.7c0,4.1-3.4,7.4-7.5,7.4c-4.2,0-7.5-3.3-7.5-7.5C11.8,3.3,15.2,0,19.4,0z"/>
</svg>
